<?xml version="1.0" encoding="UTF-8" standalone="no"?>
<!-- Created with Inkscape (http://www.inkscape.org/) -->

<svg
   width="264.58334mm"
   height="164.01411mm"
   viewBox="0 0 264.58334 164.01411"
   version="1.1"
   id="svg5"
   xml:space="preserve"
   inkscape:version="1.2.1 (9c6d41e410, 2022-07-14)"
   sodipodi:docname="CogSkins logo.svg"
   inkscape:export-filename="CogSkins logo.png"
   inkscape:export-xdpi="300"
   inkscape:export-ydpi="300"
   xmlns:inkscape="http://www.inkscape.org/namespaces/inkscape"
   xmlns:sodipodi="http://sodipodi.sourceforge.net/DTD/sodipodi-0.dtd"
   xmlns="http://www.w3.org/2000/svg"
   xmlns:svg="http://www.w3.org/2000/svg"><sodipodi:namedview
     id="namedview7"
     pagecolor="#505050"
     bordercolor="#ffffff"
     borderopacity="1"
     inkscape:showpageshadow="0"
     inkscape:pageopacity="0"
     inkscape:pagecheckerboard="1"
     inkscape:deskcolor="#505050"
     inkscape:document-units="mm"
     showgrid="false"
     inkscape:zoom="0.4204826"
     inkscape:cx="233.06553"
     inkscape:cy="272.30615"
     inkscape:window-width="1860"
     inkscape:window-height="1048"
     inkscape:window-x="1366"
     inkscape:window-y="32"
     inkscape:window-maximized="1"
     inkscape:current-layer="layer1" /><defs
     id="defs2" /><g
     inkscape:label="Layer 1"
     inkscape:groupmode="layer"
     id="layer1"
     transform="translate(-14.414352,-266.32446)"><g
       id="g541"
       transform="matrix(6.427004,0,0,6.427004,-78.226746,-1445.3439)"><g
         id="g5105"><g
           id="g2700"
           transform="translate(-67.830213,22.779539)"
           style="fill:#123e7c;fill-opacity:0.996078"><path
             style="color:#000000;fill:#123e7c;fill-opacity:0.996078;stroke-width:2"
             d="m 113.55844,247.06399 -1.81694,0.54622 -0.29197,1.32033 -1.19476,-1.83089 -2.30529,1.84019 -0.96635,4.33462 0.97824,1.58595 2.52026,-1.75183 -0.28681,1.86345 -5.09891,1.96836 6.41511,-1.15962 z m -3.8225,1.92546 1.27796,1.32654 -0.37259,2.07636 -2.10375,0.52813 z"
             id="path2696" /><path
             style="color:#000000;fill:#123e7c;fill-opacity:0.996078"
             d="m 114.92773,245.60742 -1.65625,0.49805 -2.0664,0.62305 -0.71485,-1.09766 -3.43945,2.74805 -1.13281,5.07421 1.04492,1.69532 -2.22656,0.85937 0.53711,1.91602 7.06054,-1.27539 z"
             id="path2698" /></g><g
           id="g2706"
           transform="translate(-67.830213,22.779539)"
           style="fill:#123e7c;fill-opacity:0.996078"><path
             style="color:#000000;fill:#123e7c;fill-opacity:0.996078;stroke-width:2"
             d="m 105.91343,247.27225 -2.79311,0.78961 -1.12965,5.36246 1.53996,1.41491 2.86339,-1.04025 0.91933,-5.53248 z m -0.33693,1.3472 0.29042,0.60255 -0.68213,3.42976 -1.21026,0.60668 -0.35657,-0.80667 0.86403,-3.2644 z"
             id="path2702" /><path
             style="color:#000000;fill:#123e7c;fill-opacity:0.996078"
             d="m 106.10156,246.17969 -0.46093,0.13086 -3.375,0.95312 -1.3711,6.51172 2.40625,2.21094 3.98438,-1.44727 1.11718,-6.72656 z"
             id="path2704" /></g><g
           id="g2712"
           transform="translate(-67.830213,22.779539)"
           style="fill:#123e7c;fill-opacity:0.996078"><path
             style="color:#000000;fill:#123e7c;fill-opacity:0.996078;stroke-width:2"
             d="m 95.803788,256.76711 1.370967,-0.82767 -0.568599,-1.94656 -8.625822,4.08387 -0.796349,1.83871 6.715141,1.36046 -6.78186,3.754 10.007681,-2.95636 -0.237942,-1.95581 -6.935555,-1.24284 5.559081,-2.65754 z"
             id="path2708" /><path
             style="color:#000000;fill:#123e7c;fill-opacity:0.996078"
             d="m 97.238281,252.58789 -10.02539,4.74609 -1.4375,3.31641 5.261718,1.06641 -8.792544,5.33454 15.976138,-4.25837 -0.429687,-3.5293 -4.607422,-0.82617 1.894531,-0.9043 0.339844,0.63477 0.902343,-0.54492 2.029297,-1.22461 z"
             id="path2710"
             sodipodi:nodetypes="ccccccccccccc" /></g><g
           id="g2718"
           transform="translate(-67.830213,22.779539)"
           style="fill:#123e7c;fill-opacity:0.996078"><path
             style="color:#000000;fill:#123e7c;fill-opacity:0.996078;stroke-width:2"
             d="m 102.74843,245.07929 0.78087,1.89471 -1.39934,0.8548 -0.44726,-0.26134 -6.653477,5.2757 9.107367,0.0652 0.9224,-0.0237 -3.01115,0.49231 -8.467795,1.43288 -1.67513,-2.14831 z"
             id="path2714" /><path
             style="color:#000000;fill:#123e7c;fill-opacity:0.996078"
             d="m 103.19727,243.54492 -1.02149,0.71485 -11.70703,8.18554 2.689453,3.44922 9.054687,-1.53125 3.00781,-0.49219 -0.1875,-1.98632 -0.90625,0.0234 -6.253903,-0.0449 3.894533,-3.08789 0.37305,0.21875 2.63867,-1.61133 z"
             id="path2716"
             sodipodi:nodetypes="ccccccccccccc" /></g><g
           id="g2724"
           transform="translate(-67.830213,22.779539)"
           style="fill:#123e7c;fill-opacity:0.996078"><path
             style="color:#000000;fill:#123e7c;fill-opacity:0.996078;stroke-width:2"
             d="m 100.18907,254.26355 -1.192643,-0.95374 -1.753065,8.64894 1.266026,1.81288 0.544607,-2.69595 5.828695,4.07383 -4.982263,-4.69931 5.163103,-4.26202 -3.45747,0.73289 -2.250434,2.214 z"
             id="path2720" /><path
             style="color:#000000;fill:#123e7c;fill-opacity:0.996078"
             d="m 98.227009,252.07203 -2.049275,10.10766 2.84961,4.08008 0.705078,-3.49024 4.578128,3.19922 1.25781,-1.54688 -4.1582,-3.92187 4.28906,-3.54102 -0.84375,-1.75 -3.74219,0.79493 -0.25,0.24609 0.41016,-2.39844 -0.45899,-0.36914 -1.735756,-1.38751 z"
             id="path2722"
             sodipodi:nodetypes="ccccccccccccccc" /></g><g
           id="g2730"
           transform="translate(-67.830213,22.779539)"
           style="fill:#123e7c;fill-opacity:0.996078"><path
             style="color:#000000;fill:#123e7c;fill-opacity:0.996078;stroke-width:2"
             d="m 104.9161,257.11842 1.49091,-0.15608 -1.376,8.20114 -1.15682,-3.16817 z"
             id="path2726" /><path
             style="color:#000000;fill:#123e7c;fill-opacity:0.996078"
             d="m 107.61133,255.83008 -3.52149,0.36914 -0.15234,0.71094 -1.10156,5.1582 2.55469,6.99609 z"
             id="path2728" /></g><g
           id="g2736"
           transform="translate(-67.830213,22.779539)"
           style="fill:#123e7c;fill-opacity:0.996078"><path
             style="color:#000000;fill:#123e7c;fill-opacity:0.996078;stroke-width:2"
             d="m 105.46672,254.14521 -0.39399,2.13336 1.52563,0.0894 0.17264,-1.23888 z"
             id="path2732" /><path
             style="color:#000000;fill:#123e7c;fill-opacity:0.996078"
             d="m 104.77734,252.37305 -0.29492,1.58984 -0.59961,3.24805 3.57813,0.20898 0.38086,-2.73437 z"
             id="path2734" /></g><g
           id="g2742"
           transform="translate(-67.830213,22.779539)"
           style="fill:#123e7c;fill-opacity:0.996078"><path
             style="color:#000000;fill:#123e7c;fill-opacity:0.996078;stroke-width:2;stroke-linecap:round"
             d="m 107.48602,256.08493 -1.32291,5.83153 1.28051,1.8841 0.92444,-5.02677 2.07962,-0.58091 -1.25925,5.27872 1.22227,2.4384 1.67288,-7.96228 -1.08151,-1.54164 -2.49842,1.71525 0.16588,-1.05942 z"
             id="path2738" /><path
             style="color:#000000;fill:#123e7c;fill-opacity:0.996078;stroke-linecap:round"
             d="m 106.86914,254.2793 -0.35742,1.58398 -1.41992,6.25586 2.89453,4.25977 0.41406,-2.24805 2.40039,4.78711 2.35156,-11.18945 -1.90039,-2.70704 -1.90234,1.30664 z"
             id="path2740" /></g><g
           id="g2748"
           transform="translate(-67.830213,22.779539)"
           style="fill:#123e7c;fill-opacity:0.996078"><path
             style="color:#000000;fill:#123e7c;fill-opacity:0.996078;paint-order:stroke fill markers"
             d="m 112.08398,256.57422 -0.58007,2.95312 1.94531,1.82032 -3.17774,2.21484 0.86719,1.77539 6.36914,-1.96875 0.35157,-2.98437 -1.72657,-1.55665 7.2792,-4.1868 z"
             id="path2744"
             sodipodi:nodetypes="cccccccccc" /></g></g><g
         id="g4663"><path
           style="color:#000000;fill:#01b8ff;fill-opacity:1;paint-order:stroke fill markers"
           d="m 35.14245,267.09204 -0.51172,0.35742 -11.273443,7.88281 2.181641,2.80079 8.761722,-1.48243 1.42227,-0.49218 -0.0937,-0.99414 -0.91407,0.0234 -6.094141,-0.0547 5.273441,-4.18165 0.41016,0.24024 2.01953,-1.23438 z"
           id="path2750"
           sodipodi:nodetypes="ccccccccccccc" /><path
           style="color:#000000;fill:#01b8ff;fill-opacity:1;paint-order:stroke fill markers"
           d="m 38.1776,269.5061 -0.23047,0.0645 -3.08398,0.87109 -1.250003,5.9375 1.972663,1.8125 3.42382,-1.24219 1.01758,-6.13086 z m -0.18945,1.0918 0.95117,0.67383 -0.82031,4.9375 -2.30469,0.83593 -1.10547,-1.01757 1.00782,-4.78711 z m -0.0156,0.11914 -0.45703,0.23828 -1.29101,0.66992 -0.96485,3.64844 0.63868,1.44727 1.89843,-0.95313 0.76368,-3.83203 z m -0.46289,1.36719 -0.59765,3.00976 -0.52344,0.26172 -0.0723,-0.16601 0.76172,-2.88086 z"
           id="path2752" /><path
           style="color:#000000;fill:#01b8ff;fill-opacity:1;paint-order:stroke fill markers"
           d="m 46.41198,269.11548 -0.82813,0.25 -2.09765,0.63086 -0.0977,0.44336 -0.8457,-1.29493 -2.87305,2.29297 -1.04883,4.70508 1.25391,2.0332 -2.78906,1.07813 0.26953,0.95703 6.73633,-1.2168 z m -1.36719,1.45508 -1.77539,7.55664 -0.92383,0.16601 0.46875,-0.17969 0.38867,-2.52343 0.043,-0.0117 0.47461,-2.64649 -1.87695,-1.94922 0.46289,-0.36914 1.54492,2.36524 0.48438,-2.19531 z m -3.49219,0.64453 -0.125,0.4082 -1.45703,4.77734 1.66992,-0.41992 -1.36132,0.94727 -0.59375,-0.96289 0.88281,-3.96485 z m 0.58399,1.51367 0.50976,0.5293 -0.26953,1.50781 -0.93359,0.23437 z m -0.15625,4.23633 -0.0664,0.42382 -1.22851,0.47461 z"
           id="path2754" /><path
           style="color:#000000;fill:#01b8ff;fill-opacity:1;paint-order:stroke fill markers"
           d="m 29.091662,276.07056 -9.326172,4.41406 -1.115234,2.57812 5.988281,1.21289 -7.838351,4.57272 13.041476,-3.63522 -0.333984,-2.74218 -5.769532,-1.03516 3.726563,-1.78125 0.316406,0.5918 0.451172,-0.27149 1.699219,-1.02734 z"
           id="path2756"
           sodipodi:nodetypes="ccccccccccccc" /><path
           style="color:#000000;fill:#01b8ff;fill-opacity:1;paint-order:stroke fill markers"
           d="m 30.839709,275.18774 -1.958985,9.66211 2.056641,2.94531 0.625,-3.09179 5.203125,3.63476 0.63086,-0.77343 -4.570313,-4.31055 4.724613,-3.90039 -0.42188,-0.875 -3.599603,0.76367 -1.25,1.23047 0.62304,-3.63672 -0.23047,-0.18359 z"
           id="path2758"
           sodipodi:nodetypes="cccccccccccccc" /><path
           style="color:#000000;fill:#01b8ff;fill-opacity:1;paint-order:stroke fill markers"
           d="m 39.17956,279.17602 -2.50586,0.26172 -0.0762,0.35547 -1.07226,5.01758 1.85547,5.08203 z"
           id="path2760"
           sodipodi:nodetypes="cccccc" /><g
           id="g2764"
           transform="translate(-67.830213,22.779539)"
           style="fill:#01b8ff;fill-opacity:1"><path
             style="color:#000000;fill:#01b8ff;fill-opacity:1;paint-order:stroke fill markers"
             d="m 105.12109,253.25977 -0.14648,0.79492 -0.49609,2.68945 2.55078,0.15039 0.27734,-1.98828 z"
             id="path2762"
             sodipodi:nodetypes="cccccc" /></g><path
           style="color:#000000;fill:#01b8ff;fill-opacity:1;paint-order:stroke fill markers"
           d="m 39.34752,277.96118 -0.17968,0.79297 -1.3711,6.04297 2.08789,3.07226 1.08789,-5.91797 0.96094,-0.26953 -1.10351,4.63086 1.94531,3.88086 2.01172,-9.57617 -1.49024,-2.125 -1.95117,1.33984 0.0312,-0.19531 z"
           id="path2766"
           sodipodi:nodetypes="ccccccccccccc" /><path
           style="color:#000000;fill:#01b8ff;fill-opacity:1;paint-order:stroke fill markers"
           d="m 44.68151,279.77368 -0.46484,2.35742 2.19335,2.05274 -3.68359,2.56836 0.43359,0.88867 6.0586,-1.87305 0.2832,-2.4043 -2.07617,-1.87304 6.03763,-3.36662 z"
           id="path2768"
           sodipodi:nodetypes="cccccccccc" /></g><g
         id="g4444"><path
           style="font-variation-settings:normal;fill:#f7fafa;fill-opacity:0.996078;stroke:none;stroke-width:0.1;stroke-linecap:butt;stroke-linejoin:miter;stroke-miterlimit:4;stroke-dasharray:none;stroke-dashoffset:0;stroke-opacity:1;stop-color:#000000"
           d="m 34.91822,267.85883 0.78087,1.89471 -1.39934,0.8548 -0.44726,-0.26134 -6.65348,5.2757 7.91571,-0.0101 -0.89709,0.54395 -8.467798,1.43288 -1.67513,-2.14831 z"
           id="path2770"
           sodipodi:nodetypes="cccccccccc" /><path
           id="path2772"
           style="font-variation-settings:normal;fill:#f7fafa;fill-opacity:0.996078;stroke:none;stroke-width:0.1;stroke-linecap:butt;stroke-linejoin:miter;stroke-miterlimit:4;stroke-dasharray:none;stroke-dashoffset:0;stroke-opacity:1;stop-color:#000000"
           d="m 38.08322,270.05179 -2.79311,0.78961 -1.12965,5.36246 1.53996,1.41491 2.86339,-1.04025 0.91933,-5.53248 z m -0.33693,1.3472 0.29042,0.60255 -0.68213,3.42976 -1.21026,0.60668 -0.35657,-0.80667 0.86403,-3.2644 z" /><path
           id="path2774"
           style="font-variation-settings:normal;fill:#f7fafa;fill-opacity:0.996078;stroke:none;stroke-width:0.1;stroke-linecap:butt;stroke-linejoin:miter;stroke-miterlimit:4;stroke-dasharray:none;stroke-dashoffset:0;stroke-opacity:1;stop-color:#000000"
           d="m 45.72823,269.84353 -1.81694,0.54622 -0.29197,1.32033 -1.19476,-1.83089 -2.30529,1.84019 -0.96635,4.33462 0.97824,1.58595 2.52026,-1.75183 -0.28681,1.86345 -5.09891,1.96836 6.41511,-1.15962 z m -3.8225,1.92546 1.27796,1.32654 -0.37259,2.07636 -2.10375,0.52813 z" /><path
           style="font-variation-settings:normal;fill:#f7fafa;fill-opacity:0.996078;stroke:none;stroke-width:0.1;stroke-linecap:butt;stroke-linejoin:miter;stroke-miterlimit:4;stroke-dasharray:none;stroke-dashoffset:0;stroke-opacity:1;stop-color:#000000"
           d="m 27.973575,279.54665 1.370967,-0.82767 -0.568599,-1.94656 -8.625822,4.08387 -0.796349,1.83871 6.715141,1.36046 -6.78186,3.754 10.007681,-2.95636 -0.237942,-1.95581 -6.935555,-1.24284 5.559081,-2.65754 z"
           id="path2776"
           sodipodi:nodetypes="cccccccccccc" /><path
           style="font-variation-settings:normal;fill:#f7fafa;fill-opacity:0.996078;stroke:none;stroke-width:0.1;stroke-linecap:butt;stroke-linejoin:miter;stroke-miterlimit:4;stroke-dasharray:none;stroke-dashoffset:0;stroke-opacity:1;stop-color:#000000"
           d="m 32.358857,277.04309 -1.192643,-0.95374 -1.753065,8.64894 1.266026,1.81288 0.544607,-2.69595 5.828698,4.07383 -4.982266,-4.69931 5.163106,-4.26202 -3.457473,0.73289 -2.250434,2.214 z"
           id="path2778" /><path
           style="font-variation-settings:normal;fill:#f7fafa;fill-opacity:0.996078;stroke:none;stroke-width:0.1;stroke-linecap:butt;stroke-linejoin:miter;stroke-miterlimit:4;stroke-dasharray:none;stroke-dashoffset:0;stroke-opacity:1;stop-color:#000000"
           d="m 37.63651,276.92475 -0.39399,2.13336 1.52563,0.0894 0.17264,-1.23888 z"
           id="path2780" /><path
           style="font-variation-settings:normal;fill:#f7fafa;fill-opacity:0.996078;stroke:none;stroke-width:0.1;stroke-linecap:butt;stroke-linejoin:miter;stroke-miterlimit:4;stroke-dasharray:none;stroke-dashoffset:0;stroke-opacity:1;stop-color:#000000"
           d="m 37.08589,279.89796 1.49091,-0.15608 -1.376,8.20114 -1.15682,-3.16817 z"
           id="path2782" /><path
           style="font-variation-settings:normal;fill:#f7fafa;fill-opacity:0.996078;stroke:none;stroke-width:0.1;stroke-linecap:butt;stroke-linejoin:miter;stroke-miterlimit:4;stroke-dasharray:none;stroke-dashoffset:0;stroke-opacity:1;stop-color:#000000"
           d="m 39.65581,278.86447 -1.32291,5.83153 1.28051,1.8841 0.92444,-5.02677 2.07962,-0.58091 -1.25925,5.27872 1.22227,2.4384 1.67288,-7.96228 -1.08151,-1.54164 -2.49842,1.71525 0.16588,-1.05942 z"
           id="path2784"
           sodipodi:nodetypes="cccccccccccc" /><path
           style="font-variation-settings:normal;fill:#f7fafa;fill-opacity:0.996078;stroke:none;stroke-width:1;stroke-linecap:square;stroke-linejoin:miter;stroke-miterlimit:4;stroke-dasharray:none;stroke-dashoffset:0;stroke-opacity:1;paint-order:stroke fill markers;stop-color:#000000"
           d="m 51.72412,278.75665 -6.61553,1.43504 -0.34691,1.76425 2.44194,2.28553 -4.19128,2.92086 5.74801,-1.77597 0.21454,-1.82493 -2.42523,-2.18863 z"
           id="path2786" /></g></g></g></svg>
